<?xml version="1.0" encoding="utf-8"?>
<!-- Generator: Adobe Illustrator 24.2.1, SVG Export Plug-In . SVG Version: 6.00 Build 0)  -->
<svg version="1.1" id="Layer_1" xmlns="http://www.w3.org/2000/svg" xmlns:xlink="http://www.w3.org/1999/xlink" x="0px" y="0px"
	 viewBox="0 0 718.5 480.6" style="enable-background:new 0 0 718.5 480.6;" xml:space="preserve">
<style type="text/css">
	.st0{opacity:0.8;}
	.st1{opacity:0.4;fill:url(#SVGID_1_);enable-background:new    ;}
	.st2{opacity:0.8;fill:url(#SVGID_2_);enable-background:new    ;}
	.st3{opacity:0.8;fill:url(#SVGID_3_);enable-background:new    ;}
	.st4{fill:url(#SVGID_4_);}
	.st5{fill:url(#SVGID_5_);}
	.st6{fill:url(#SVGID_6_);}
	.st7{opacity:0.3;}
	.st8{opacity:0.3;fill:url(#SVGID_7_);enable-background:new    ;}
	.st9{opacity:0.3;fill:url(#SVGID_8_);enable-background:new    ;}
	.st10{opacity:0.3;fill:url(#SVGID_9_);enable-background:new    ;}
	.st11{fill:url(#SVGID_10_);}
	.st12{fill:url(#SVGID_11_);}
	.st13{fill:url(#SVGID_12_);}
	.st14{fill:url(#SVGID_13_);}
	.st15{fill:url(#SVGID_14_);}
	.st16{fill:url(#SVGID_15_);}
	.st17{opacity:0.3;fill:url(#SVGID_16_);enable-background:new    ;}
	.st18{opacity:0.3;fill:url(#SVGID_17_);enable-background:new    ;}
	.st19{opacity:0.3;fill:url(#SVGID_18_);enable-background:new    ;}
</style>
<g class="st0">
	
		<linearGradient id="SVGID_1_" gradientUnits="userSpaceOnUse" x1="151.179" y1="179.1085" x2="267.518" y2="179.1085" gradientTransform="matrix(1 0 0 -1 0 416.962)">
		<stop  offset="0" style="stop-color:#F6E3C5;stop-opacity:0.4"/>
		<stop  offset="0.1989" style="stop-color:#E9BB69"/>
	</linearGradient>
	<path class="st1" d="M151.2,221.4v32.9L267.5,332v-32.9V143.7L151.2,221.4z"/>
	
		<linearGradient id="SVGID_2_" gradientUnits="userSpaceOnUse" x1="267.518" y1="140.2335" x2="383.857" y2="140.2335" gradientTransform="matrix(1 0 0 -1 0 416.962)">
		<stop  offset="0" style="stop-color:#FFEDBF"/>
		<stop  offset="0.2814" style="stop-color:#E3AA3C"/>
	</linearGradient>
	<path class="st2" d="M383.9,254.3v-32.9l-116.3,77.7V332L383.9,254.3z"/>
	
		<linearGradient id="SVGID_3_" gradientUnits="userSpaceOnUse" x1="151.179" y1="195.5555" x2="383.857" y2="195.5555" gradientTransform="matrix(1 0 0 -1 0 416.962)">
		<stop  offset="1.249210e-03" style="stop-color:#FFEDBF"/>
		<stop  offset="0.574" style="stop-color:#E3AA3C"/>
	</linearGradient>
	<path class="st3" d="M267.5,143.7l-116.3,77.8l116.3,77.7l116.3-77.7"/>
</g>
<linearGradient id="SVGID_4_" gradientUnits="userSpaceOnUse" x1="208.6445" y1="196.347" x2="208.6445" y2="384.74" gradientTransform="matrix(1 0 0 -1 0 416.962)">
	<stop  offset="0" style="stop-color:#98C3A2"/>
	<stop  offset="0.7608" style="stop-color:#2B8341"/>
</linearGradient>
<path class="st4" d="M150.5,110v32.9l116.3,77.8v-32.9V32.2L150.5,110z"/>
<linearGradient id="SVGID_5_" gradientUnits="userSpaceOnUse" x1="266.814" y1="251.6685" x2="383.154" y2="251.6685" gradientTransform="matrix(1 0 0 -1 0 416.962)">
	<stop  offset="0" style="stop-color:#98C3A2"/>
	<stop  offset="0.7608" style="stop-color:#2B8341"/>
</linearGradient>
<path class="st5" d="M383.2,142.9V110l-116.3,77.7v32.9L383.2,142.9z"/>
<linearGradient id="SVGID_6_" gradientUnits="userSpaceOnUse" x1="266.8145" y1="229.241" x2="266.8145" y2="384.74" gradientTransform="matrix(1 0 0 -1 0 416.962)">
	<stop  offset="0" style="stop-color:#98C3A2"/>
	<stop  offset="0.7608" style="stop-color:#2B8341"/>
</linearGradient>
<path class="st6" d="M266.8,32.2L150.5,110l116.3,77.7L383.2,110"/>
<g class="st7">
	
		<linearGradient id="SVGID_7_" gradientUnits="userSpaceOnUse" x1="209.3485" y1="228.569" x2="209.3485" y2="416.962" gradientTransform="matrix(1 0 0 -1 0 416.962)">
		<stop  offset="0" style="stop-color:#98C3A2"/>
		<stop  offset="0.7608" style="stop-color:#2B8341"/>
	</linearGradient>
	<path class="st8" d="M151.2,77.8v32.9l116.3,77.8v-32.9V0L151.2,77.8z"/>
	
		<linearGradient id="SVGID_8_" gradientUnits="userSpaceOnUse" x1="267.518" y1="283.8905" x2="383.857" y2="283.8905" gradientTransform="matrix(1 0 0 -1 0 416.962)">
		<stop  offset="0" style="stop-color:#98C3A2"/>
		<stop  offset="0.7608" style="stop-color:#2B8341"/>
	</linearGradient>
	<path class="st9" d="M383.9,110.6V77.8l-116.3,77.7v32.9L383.9,110.6z"/>
	
		<linearGradient id="SVGID_9_" gradientUnits="userSpaceOnUse" x1="267.518" y1="261.463" x2="267.518" y2="416.962" gradientTransform="matrix(1 0 0 -1 0 416.962)">
		<stop  offset="0" style="stop-color:#98C3A2"/>
		<stop  offset="0.7608" style="stop-color:#2B8341"/>
	</linearGradient>
	<path class="st10" d="M267.5,0L151.2,77.8l116.3,77.7l116.3-77.7"/>
</g>
<linearGradient id="SVGID_10_" gradientUnits="userSpaceOnUse" x1="58.173" y1="59.175" x2="58.173" y2="247.574" gradientTransform="matrix(1 0 0 -1 0 416.962)">
	<stop  offset="0" style="stop-color:#98C3A2"/>
	<stop  offset="0.7608" style="stop-color:#2B8341"/>
</linearGradient>
<path class="st11" d="M0,247.1V280l116.3,77.8v-32.9V169.4L0,247.1z"/>
<linearGradient id="SVGID_11_" gradientUnits="userSpaceOnUse" x1="116.346" y1="114.4995" x2="232.685" y2="114.4995" gradientTransform="matrix(1 0 0 -1 0 416.962)">
	<stop  offset="0" style="stop-color:#98C3A2"/>
	<stop  offset="0.7608" style="stop-color:#2B8341"/>
</linearGradient>
<path class="st12" d="M232.7,280v-32.9l-116.3,77.8v32.9L232.7,280z"/>
<linearGradient id="SVGID_12_" gradientUnits="userSpaceOnUse" x1="116.3425" y1="92.068" x2="116.3425" y2="247.574" gradientTransform="matrix(1 0 0 -1 0 416.962)">
	<stop  offset="0" style="stop-color:#98C3A2"/>
	<stop  offset="0.7608" style="stop-color:#2B8341"/>
</linearGradient>
<path class="st13" d="M116.3,169.4L0,247.1l116.3,77.8l116.3-77.8"/>
<linearGradient id="SVGID_13_" gradientUnits="userSpaceOnUse" x1="543.329" y1="-63.673" x2="543.329" y2="124.727" gradientTransform="matrix(1 0 0 -1 0 416.962)">
	<stop  offset="0" style="stop-color:#98C3A2"/>
	<stop  offset="0.7608" style="stop-color:#2B8341"/>
</linearGradient>
<path class="st14" d="M485.2,370v32.9l116.3,77.8v-32.9V292.2L485.2,370z"/>
<linearGradient id="SVGID_14_" gradientUnits="userSpaceOnUse" x1="601.502" y1="-8.348" x2="717.841" y2="-8.348" gradientTransform="matrix(1 0 0 -1 0 416.962)">
	<stop  offset="0" style="stop-color:#98C3A2"/>
	<stop  offset="0.7608" style="stop-color:#2B8341"/>
</linearGradient>
<path class="st15" d="M717.8,402.9V370l-116.3,77.8v32.9L717.8,402.9z"/>
<linearGradient id="SVGID_15_" gradientUnits="userSpaceOnUse" x1="601.4985" y1="-30.779" x2="601.4985" y2="124.727" gradientTransform="matrix(1 0 0 -1 0 416.962)">
	<stop  offset="0" style="stop-color:#98C3A2"/>
	<stop  offset="0.7608" style="stop-color:#2B8341"/>
</linearGradient>
<path class="st16" d="M601.5,292.2L485.2,370l116.3,77.8L717.8,370"/>
<g class="st7">
	
		<linearGradient id="SVGID_16_" gradientUnits="userSpaceOnUse" x1="544.032" y1="-31.45" x2="544.032" y2="156.949" gradientTransform="matrix(1 0 0 -1 0 416.962)">
		<stop  offset="0" style="stop-color:#98C3A2"/>
		<stop  offset="0.7608" style="stop-color:#2B8341"/>
	</linearGradient>
	<path class="st17" d="M485.9,337.8v32.9l116.3,77.8v-32.9V260L485.9,337.8z"/>
	
		<linearGradient id="SVGID_17_" gradientUnits="userSpaceOnUse" x1="602.205" y1="23.8745" x2="718.544" y2="23.8745" gradientTransform="matrix(1 0 0 -1 0 416.962)">
		<stop  offset="0" style="stop-color:#98C3A2"/>
		<stop  offset="0.7608" style="stop-color:#2B8341"/>
	</linearGradient>
	<path class="st18" d="M718.5,370.7v-32.9l-116.3,77.8v32.9L718.5,370.7z"/>
	
		<linearGradient id="SVGID_18_" gradientUnits="userSpaceOnUse" x1="602.2015" y1="1.443" x2="602.2015" y2="156.949" gradientTransform="matrix(1 0 0 -1 0 416.962)">
		<stop  offset="0" style="stop-color:#98C3A2"/>
		<stop  offset="0.7608" style="stop-color:#2B8341"/>
	</linearGradient>
	<path class="st19" d="M602.2,260l-116.3,77.8l116.3,77.8l116.3-77.8"/>
</g>
</svg>
